<?xml version="1.0" encoding="utf-8"?>
<!-- Generator: Adobe Illustrator 19.2.1, SVG Export Plug-In . SVG Version: 6.00 Build 0)  -->
<svg version="1.1" id="Layer_1" xmlns="http://www.w3.org/2000/svg" xmlns:xlink="http://www.w3.org/1999/xlink" x="0px" y="0px"
	 viewBox="0 0 841.9 595.3" style="enable-background:new 0 0 841.9 595.3;" xml:space="preserve">
<style type="text/css">
	.st0{fill:#D58E69;}
</style>
<g>
	<g>
		<path class="st0" d="M100.4,272.1c-6.1-3.9-10.8-9.5-14.1-16.5c-3.3-7.1-5-15.2-5-24.5c0-9.2,1.7-17.4,5.1-24.5
			c3.4-7.1,8.2-12.6,14.4-16.5c6.2-3.9,13.4-5.9,21.5-5.9c3.2,0,6.5,0.6,9.8,1.7c3.3,1.1,6.3,2.7,9,4.7l7.5-6.4h2.3v27.7h-2.3
			l-6.9-17.3c-2.6-2.4-5.6-4.3-9.1-5.7c-3.5-1.4-6.9-2.1-10.2-2.1c-5.2,0-9.8,1.3-13.8,4c-4,2.7-7.1,6.6-9.3,11.7
			c-2.2,5.1-3.3,11.2-3.3,18.3v20.4c0,7.1,1.1,13.2,3.2,18.3c2.2,5.1,5.2,9.1,9,11.8c3.9,2.7,8.4,4.1,13.6,4.1
			c3.8,0,7.6-0.8,11.4-2.5c3.8-1.7,7-3.9,9.5-6.8l6.5-18h2.3v28.7h-2.3l-8-5.7c-2.7,2.2-5.7,3.8-9.2,5c-3.4,1.2-6.8,1.8-10.2,1.8
			C113.6,278,106.5,276,100.4,272.1z"/>
		<path class="st0" d="M182.1,275.7v-2.3l10.9-4.5l32.3-84.7h1.8l30.5,87.5l10.3,1.7v2.3H235v-2.3l9.2-1.5l-9.5-26.5H205l-9,23.4
			l10,4.5v2.3H182.1z M205.9,243.1h28l-13.4-39.3L205.9,243.1z"/>
		<path class="st0" d="M297.1,275.7v-2.3l10.4-4.5v-75.7l-10.4-4.4v-2.5h20.8l48.1,67.4v-60.6l-10.4-4.4v-2.5h23.8v2.5l-10.6,4.4
			v82.5H366l-55.7-78.3v71.5l10.7,4.5v2.3H297.1z"/>
		<path class="st0" d="M414.5,275.7v-2.3l10.3-1.7v-81.3l-10.3-1.6v-2.5h32.8v2.5l-10.3,1.6v81.3l10.3,1.7v2.3H414.5z"/>
		<path class="st0" d="M503.7,272.1c-6.1-3.9-10.8-9.5-14.1-16.5c-3.3-7.1-5-15.2-5-24.5c0-9.2,1.7-17.4,5.1-24.5
			c3.4-7.1,8.2-12.6,14.4-16.5c6.2-3.9,13.4-5.9,21.5-5.9c3.2,0,6.5,0.6,9.8,1.7c3.3,1.1,6.3,2.7,9,4.7l7.5-6.4h2.3v27.7h-2.3
			l-6.9-17.3c-2.6-2.4-5.6-4.3-9.1-5.7c-3.5-1.4-6.9-2.1-10.2-2.1c-5.2,0-9.8,1.3-13.8,4c-4,2.7-7.1,6.6-9.3,11.7
			c-2.2,5.1-3.4,11.2-3.4,18.3v20.4c0,7.1,1.1,13.2,3.2,18.3c2.2,5.1,5.2,9.1,9,11.8c3.9,2.7,8.4,4.1,13.6,4.1
			c3.8,0,7.6-0.8,11.4-2.5c3.8-1.7,7-3.9,9.5-6.8l6.5-18h2.3v28.7h-2.3l-8-5.7c-2.7,2.2-5.7,3.8-9.2,5c-3.4,1.2-6.8,1.8-10.2,1.8
			C516.9,278,509.8,276,503.7,272.1z"/>
		<path class="st0" d="M585.4,275.7v-2.3l10.9-4.5l32.3-84.7h1.8l30.5,87.5l10.3,1.7v2.3h-32.8v-2.3l9.2-1.5l-9.5-26.5h-29.7
			l-9,23.4l10,4.5v2.3H585.4z M609.2,243.1h28l-13.4-39.3L609.2,243.1z"/>
		<path class="st0" d="M715,272.1l-9.5,4.8h-2.5v-28.7h2.5l9.6,20.8c6.2,4.4,13.3,6.6,21.2,6.6c6.5,0,12-1.7,16.2-5.2
			c4.3-3.5,6.4-8.3,6.4-14.6c0-4.5-1.4-8.1-4.1-10.8c-2.8-2.6-7.2-4.7-13.4-6.3l-18.5-4.8c-6.5-1.7-11.3-4.6-14.6-8.8
			c-3.3-4.1-4.9-9-4.9-14.7c0-5.1,1-9.7,3.1-13.7c2-4,5-7.1,9-9.3c3.9-2.2,8.6-3.3,14.1-3.3c6.8,0,12.8,1.2,18.2,3.5l8.2-3.5h2.5
			V207h-2.5l-8-16.3c-5.6-2.7-11.6-4-18.2-4c-6.5,0-11.6,1.7-15.3,5c-3.7,3.3-5.6,7.7-5.6,13.1c0,4,1.3,7.2,4,9.5
			c2.6,2.3,6.5,4.1,11.7,5.5l20,5.2c6.5,1.6,11.3,4.4,14.5,8.4c3.2,4,4.7,10,4.7,18.1c0,8.3-2.6,14.7-7.6,19.4
			c-5.1,4.7-11.9,7-20.5,7C728.5,278,721.7,276,715,272.1z"/>
		<path class="st0" d="M15.6,395.8v-2.3l10.3-1.7v-81.3l-10.3-1.6v-2.5h67.2V332h-3l-8.6-22.8h-33v41.9H57l6.6-16.2h3v35.3h-3
			L57,353.8H38.2v38l10.3,1.7v2.3H15.6z"/>
		<path class="st0" d="M117.4,395.8v-2.3l10.3-1.7v-81.3l-10.3-1.6v-2.5h32.8v2.5l-10.3,1.6v82.6h33.4l9.2-24.6h3v27.2H117.4z"/>
		<path class="st0" d="M212,395.8v-2.3l10.9-4.5l32.3-84.7h1.8l30.5,87.5l10.3,1.7v2.3h-32.8v-2.3l9.2-1.5l-9.5-26.5h-29.7l-9,23.4
			l10.1,4.5v2.3H212z M235.8,363.2h28l-13.4-39.3L235.8,363.2z"/>
		<path class="st0" d="M348.9,398l-32.2-87.5l-8.9-1.6v-2.5h32.7v2.5l-10.5,1.3l24.6,66.9l24.1-63.2l-12.8-5v-2.5h24v2.5l-8.2,4.9
			L349.8,398H348.9z"/>
		<path class="st0" d="M438,392.1c-6.4-3.9-11.4-9.5-15-16.6c-3.6-7.1-5.4-15.2-5.4-24.4s1.8-17.3,5.4-24.4
			c3.6-7.1,8.6-12.6,15-16.6c6.4-3.9,13.7-5.9,21.8-5.9c8.1,0,15.4,2,21.8,5.9c6.4,3.9,11.4,9.5,15,16.6c3.6,7.1,5.4,15.2,5.4,24.4
			s-1.8,17.3-5.4,24.4c-3.6,7.1-8.6,12.6-15,16.6c-6.4,3.9-13.7,5.9-21.8,5.9C451.6,398,444.4,396,438,392.1z M474.2,391.2
			c4.3-2.8,7.6-6.9,10.1-12.3c2.5-5.4,3.7-11.8,3.7-19.1v-17.2c0-7.4-1.2-13.8-3.7-19.1c-2.5-5.4-5.8-9.5-10.1-12.3
			c-4.3-2.8-9.1-4.2-14.5-4.2c-5.4,0-10.3,1.4-14.5,4.2c-4.2,2.8-7.6,6.9-10,12.3c-2.5,5.4-3.7,11.8-3.7,19.1v17.2
			c0,7.4,1.2,13.8,3.7,19.1c2.5,5.4,5.8,9.5,10,12.3c4.2,2.8,9.1,4.2,14.5,4.2C465.1,395.4,469.9,394,474.2,391.2z"/>
		<path class="st0" d="M555.5,390.7c-5.1-4.9-7.6-11.3-7.6-19.4v-60.9l-10.3-1.6v-2.5h32.8v2.5l-10.3,1.6v60.9
			c0,7.3,2,12.9,6.1,16.8s10.3,5.9,18.6,5.9c15.8,0,23.7-7.6,23.7-22.7v-58.1l-10.4-4.4v-2.5h23.8v2.5l-10.7,4.4v58.1
			c0,8.9-2.5,15.6-7.5,20c-5,4.4-13.1,6.6-24.3,6.6C568.6,398,560.6,395.6,555.5,390.7z"/>
		<path class="st0" d="M711.7,393.9c-2.1-2-3.5-5.4-4.2-10.3l-2.1-15c-0.7-5.1-2.5-9-5.2-11.9c-2.7-2.9-6.9-4.3-12.7-4.3h-8.7v39.3
			l10.3,1.7v2.3h-32.8v-2.3l10.3-1.7v-81.3l-10.3-1.6v-2.5h31.3c12.1,0,20.9,1.9,26.3,5.7c5.4,3.8,8.2,9.6,8.2,17.3
			c0,12.8-7.7,20.2-23.2,22.2v0.7c5.7,0.8,10.3,2.9,13.8,6.1c3.5,3.3,5.6,7.6,6.5,13.1l1.5,9.6c0.6,4.2,1.3,7,2.1,8.5
			c0.8,1.5,2,2.2,3.6,2.2c1.1,0,2.3-0.4,3.6-1.1c1.3-0.7,2.5-1.6,3.6-2.7l1.9,2c-2.2,2.5-4.4,4.2-6.7,5.2c-2.3,1-4.8,1.6-7.5,1.6
			C716.9,396.9,713.8,395.9,711.7,393.9z M691.3,349.8c5.4,0,9.7-1.7,12.7-5c3-3.3,4.5-8.2,4.5-14.7v-2.3c0-12.4-7-18.5-21-18.5
			h-8.7v40.5H691.3z"/>
		<path class="st0" d="M779.2,392.1l-9.5,4.8h-2.5v-28.7h2.5l9.6,20.8c6.2,4.4,13.3,6.6,21.2,6.6c6.5,0,12-1.7,16.2-5.2
			c4.3-3.5,6.4-8.3,6.4-14.6c0-4.5-1.4-8.1-4.1-10.8c-2.8-2.6-7.2-4.7-13.4-6.3l-18.5-4.8c-6.5-1.7-11.3-4.6-14.6-8.8
			c-3.3-4.1-4.9-9-4.9-14.7c0-5.1,1-9.7,3.1-13.7c2-4,5-7.1,9-9.3c3.9-2.2,8.6-3.3,14.1-3.3c6.8,0,12.8,1.2,18.2,3.5l8.2-3.5h2.5
			V327H820l-8-16.3c-5.6-2.7-11.6-4-18.2-4c-6.5,0-11.6,1.7-15.3,5c-3.7,3.3-5.6,7.7-5.6,13.1c0,4,1.3,7.2,4,9.5
			c2.6,2.3,6.5,4.1,11.7,5.5l20,5.2c6.5,1.6,11.3,4.4,14.5,8.4c3.2,4,4.7,10,4.7,18.1c0,8.3-2.6,14.7-7.6,19.4
			c-5.1,4.7-11.9,7-20.5,7C792.7,398,785.9,396,779.2,392.1z"/>
	</g>
	<path class="st0" d="M595.7,122.5c0,0-23.8,0.2-59.6,0.4c-35.7,0-83.4,0.1-131,0.1c-47.6,0-95.3-0.1-131-0.1
		c-35.7-0.3-59.6-0.4-59.6-0.4s6-0.5,16.4-1.2c10.4-0.6,25.3-1.8,43.2-2.5c17.9-0.7,38.7-1.8,61.1-2.2c22.3-0.3,46.2-0.6,70-0.9
		c23.8,0.3,47.7,0.6,70,0.9c22.3,0.4,43.2,1.5,61.1,2.2c17.9,0.7,32.8,1.9,43.2,2.5C589.7,122,595.7,122.5,595.7,122.5z"/>
	<g>
		<path class="st0" d="M297.7,463.3c-6.5,0-12.9,0-18.9,0c-35.7,0.3-59.6,0.5-59.6,0.5s6,0.5,16.4,1.5c10.4,0.7,25.3,2.1,43.2,3
			c6,0.3,12.3,0.6,18.9,1V463.3z"/>
		<path class="st0" d="M540.9,463.3c-5.9,0-12.3,0-18.9,0v6c6.6-0.3,12.9-0.7,18.9-1c17.9-0.9,32.8-2.3,43.2-3
			c10.4-0.9,16.4-1.5,16.4-1.5S576.7,463.6,540.9,463.3z"/>
	</g>
	<g>
		<path class="st0" d="M316.4,480.3v-0.8l3.5-0.6v-28l-3.5-0.5v-0.8h23.2v8.8h-1l-3-7.9h-11.4v13.9h5l2.3-5.6h1v12.2h-1l-2.3-5.7h-5
			v14.1h12.1l3.2-8.5h1v9.4H316.4z"/>
		<path class="st0" d="M349.7,479.3c-1.4-0.9-2.1-2.1-2.1-3.5c0-0.7,0.2-1.3,0.6-1.8c0.4-0.4,0.9-0.6,1.6-0.6c0.5,0,1,0.1,1.3,0.4
			c0.4,0.3,0.6,0.6,0.8,1.1c-0.6,0.6-0.8,1.3-0.8,2c0,0.8,0.4,1.5,1.1,2.1c0.7,0.6,1.7,0.9,2.9,0.9c1.6,0,2.9-0.4,4-1.1
			c1-0.7,1.5-1.7,1.5-2.9c0-0.7-0.2-1.3-0.7-1.6c-0.4-0.4-1.3-0.8-2.5-1.2l-5.8-2.1c-2.3-0.8-3.4-2.4-3.4-4.6c0-1.8,0.6-3.3,1.9-4.5
			c1.3-1.2,3-1.8,5.2-1.8c1.8,0,3.4,0.4,4.7,1.3c1.3,0.8,1.9,2,1.9,3.6c0,0.6-0.2,1.1-0.5,1.5c-0.3,0.4-0.8,0.6-1.3,0.6
			s-1-0.1-1.3-0.4c-0.3-0.3-0.5-0.7-0.5-1.2c0.3-0.3,0.6-0.5,0.7-0.8c0.1-0.3,0.2-0.6,0.2-1.1c0-0.7-0.3-1.3-0.9-1.8
			c-0.6-0.5-1.6-0.7-2.9-0.7c-1.1,0-2.1,0.2-2.9,0.5c-0.8,0.3-1.4,0.8-1.8,1.4c-0.4,0.6-0.6,1.1-0.6,1.7c0,0.6,0.2,1.1,0.7,1.5
			s1.3,0.8,2.5,1.2l5.4,1.9c1.3,0.5,2.2,1.1,2.9,1.9c0.6,0.8,1,1.9,1,3.2c0,1.9-0.6,3.4-1.8,4.7c-1.2,1.2-3,1.8-5.4,1.8
			C352.8,480.7,351.1,480.2,349.7,479.3z"/>
		<path class="st0" d="M372.1,479.4c-1-0.8-1.5-2.2-1.5-4v-13.9l-2.7-0.4v-0.8h2.7v-3.2l3.9-1v4.2h5v0.8l-5,0.4v13.8
			c0,2.7,1,4.1,2.9,4.1c0.4,0,0.8-0.1,1.2-0.2c0.4-0.1,0.7-0.3,0.9-0.4c0.2-0.1,0.4-0.2,0.4-0.3l0.5,0.6c-1.2,1-2.5,1.5-4.2,1.5
			C374.4,480.7,373.1,480.3,372.1,479.4z"/>
		<path class="st0" d="M386.2,480c-0.5-0.4-0.7-1-0.7-1.6c0-0.6,0.2-1.2,0.7-1.6c0.4-0.4,1-0.6,1.6-0.6s1.2,0.2,1.6,0.6
			s0.7,1,0.7,1.6c0,0.6-0.2,1.2-0.7,1.6c-0.4,0.4-1,0.7-1.6,0.7S386.6,480.5,386.2,480z"/>
		<path class="st0" d="M408.9,477.3l8.1-8.3c2.1-2.2,3.8-4.4,4.9-6.5c1.1-2.1,1.7-4.3,1.7-6.5c0-2.3-0.5-3.9-1.4-5
			c-1-1-2.3-1.6-3.9-1.6c-1.3,0-2.4,0.3-3.4,1c-1,0.7-1.4,1.6-1.4,2.7c0,1.4,0.7,2.4,2,3c0,0.9-0.3,1.6-0.8,2.1
			c-0.6,0.5-1.2,0.7-2,0.7c-0.8,0-1.5-0.3-2.1-0.9c-0.6-0.6-0.9-1.4-0.9-2.5c0-1.4,0.4-2.6,1.3-3.7c0.8-1.1,2-1.9,3.4-2.5
			c1.4-0.6,2.9-0.9,4.5-0.9c3.1,0,5.5,0.7,7,2.2c1.5,1.5,2.3,3.4,2.3,5.8c0,1.5-0.3,2.8-0.9,4c-0.6,1.2-1.3,2.3-2.2,3.2
			c-0.8,0.9-2,2-3.4,3.2l-1.1,0.9l-9.2,8.1h14.4l1.6-5.7h1v9.7h-19.4V477.3z"/>
		<path class="st0" d="M441.6,479.3c-1.7-1.2-3-3-3.9-5.5c-0.9-2.4-1.4-5.4-1.4-8.9c0-3.5,0.5-6.5,1.4-8.9c0.9-2.4,2.2-4.2,3.9-5.5
			c1.7-1.2,3.6-1.8,5.9-1.8c2.2,0,4.2,0.6,5.9,1.8c1.7,1.2,3,3,3.9,5.5c0.9,2.4,1.4,5.4,1.4,8.9c0,3.5-0.5,6.5-1.4,8.9
			c-0.9,2.4-2.2,4.2-3.9,5.5c-1.7,1.2-3.6,1.8-5.9,1.8C445.3,481.1,443.3,480.5,441.6,479.3z M452,477.4c1.1-1.9,1.7-4.8,1.7-8.8
			v-7.4c0-4-0.6-6.9-1.7-8.7c-1.1-1.9-2.6-2.8-4.5-2.8c-1.9,0-3.4,0.9-4.5,2.8c-1.1,1.9-1.7,4.8-1.7,8.7v7.4c0,4,0.6,6.9,1.7,8.8
			c1.1,1.9,2.6,2.8,4.5,2.8C449.4,480.2,450.9,479.2,452,477.4z"/>
		<path class="st0" d="M466.1,480.3v-0.8l2.7-0.4v-28.5l-2.7-0.4v-0.8h6.5v29.7l2.7,0.4v0.8H466.1z"/>
		<path class="st0" d="M485.2,479c-1.8-1.4-2.8-3.4-2.8-5.9c0-2.3,0.7-4.2,2-5.6c1.3-1.4,3-2.7,5.2-3.8l-1.8-1.2
			c-1.3-0.9-2.4-1.9-3.1-3c-0.7-1.1-1.1-2.2-1.1-3.4c0-1.5,0.4-2.8,1.3-3.9c0.9-1.1,2-2,3.4-2.6c1.4-0.6,3-0.9,4.7-0.9
			c1.4,0,2.8,0.2,4.1,0.7c1.3,0.5,2.4,1.2,3.2,2.2c0.8,1,1.3,2.2,1.3,3.5c0,1.2-0.3,2.3-0.8,3.2c-0.5,0.9-1.2,1.7-1.9,2.3
			c-0.8,0.6-1.7,1.3-2.9,1.9l1,0.6c2,1.3,3.5,2.5,4.6,3.9c1.1,1.3,1.7,3,1.7,4.9c0,1.9-0.5,3.6-1.5,4.9c-1,1.4-2.3,2.4-3.9,3.1
			c-1.6,0.7-3.3,1-5,1C489.6,481.1,487.1,480.4,485.2,479z M496.4,479.4c1.1-0.5,1.9-1.3,2.4-2.2c0.6-0.9,0.8-1.9,0.8-2.9
			c0-1.3-0.4-2.6-1.2-3.7c-0.8-1.2-2-2.3-3.6-3.5l-4.2-2.7c-1.4,1.1-2.5,2.4-3.3,3.9c-0.7,1.6-1.1,3.2-1.1,4.9c0,2,0.5,3.6,1.6,4.9
			c1,1.3,2.7,2,4.8,2C494.2,480.2,495.4,479.9,496.4,479.4z M497.5,458.9c0.4-1.1,0.7-2.4,0.7-3.6c0-1.7-0.5-3.1-1.5-4.1
			c-1-1.1-2.4-1.6-4-1.6c-1,0-1.8,0.2-2.7,0.6c-0.8,0.4-1.5,0.9-2,1.6c-0.5,0.7-0.8,1.4-0.8,2.3c0,1.1,0.3,2,1,2.9
			c0.6,0.8,1.6,1.7,2.9,2.5l4.1,2.6C496.2,461.1,497.1,460.1,497.5,458.9z"/>
	</g>
</g>
</svg>
